<?xml version="1.0" encoding="UTF-8"?>
<svg xmlns="http://www.w3.org/2000/svg" version="1.1" xmlns:xlink="http://www.w3.org/1999/xlink" viewBox="0 0 1015.1 623">
  <defs>
    <style>
      .cls-1 {
        opacity: .6;
      }

      .cls-1, .cls-2, .cls-3, .cls-4, .cls-5, .cls-6, .cls-7, .cls-8, .cls-9 {
        isolation: isolate;
      }

      .cls-1, .cls-2, .cls-5 {
        fill: #6ecebf;
      }

      .cls-10 {
        fill: #00b9ab;
      }

      .cls-11 {
        opacity: .8;
      }

      .cls-12 {
        fill: url(#linear-gradient-2);
      }

      .cls-13 {
        mask: url(#mask-1);
      }

      .cls-2 {
        opacity: .2;
      }

      .cls-14 {
        fill: #007bab;
      }

      .cls-15 {
        fill: #b56498;
      }

      .cls-16 {
        fill: #820350;
      }

      .cls-3 {
        opacity: .6;
      }

      .cls-3, .cls-17 {
        fill: #89cbea;
      }

      .cls-4, .cls-18, .cls-6, .cls-9 {
        opacity: .2;
      }

      .cls-4, .cls-19 {
        fill: #434ce1;
      }

      .cls-20 {
        fill: #005684;
      }

      .cls-21 {
        fill: #fff;
      }

      .cls-22 {
        fill: #00649a;
      }

      .cls-23 {
        mask: url(#mask);
      }

      .cls-24 {
        fill: #6359a9;
      }

      .cls-25 {
        fill: #009984;
      }

      .cls-26 {
        fill: #dfa229;
      }

      .cls-27 {
        fill: url(#linear-gradient-4);
      }

      .cls-28 {
        fill: #3a3576;
      }

      .cls-29 {
        fill: #793166;
      }

      .cls-30 {
        fill: #655bb3;
      }

      .cls-31 {
        fill: #3ec6b5;
      }

      .cls-32 {
        fill: #0075a5;
      }

      .cls-33 {
        mask: url(#mask-2);
      }

      .cls-34 {
        fill: url(#linear-gradient-3);
      }

      .cls-35 {
        fill: url(#linear-gradient-5);
      }

      .cls-36 {
        fill: #00648c;
      }

      .cls-5 {
        opacity: .4;
      }

      .cls-37 {
        fill: #0071b0;
      }

      .cls-6 {
        fill: #444ed6;
      }

      .cls-38 {
        fill: #0079ac;
      }

      .cls-39 {
        fill: #004e9c;
      }

      .cls-40 {
        fill: #9ed39a;
      }

      .cls-41 {
        fill: #c6012b;
      }

      .cls-42 {
        fill: #c3c665;
      }

      .cls-43 {
        fill: #62054d;
      }

      .cls-44 {
        fill: #008f7a;
      }

      .cls-45 {
        fill: #92d5aa;
      }

      .cls-46 {
        fill: #322d82;
      }

      .cls-47 {
        fill: #d98600;
      }

      .cls-48 {
        fill: #00509c;
      }

      .cls-7 {
        fill: #00667e;
        opacity: .5;
      }

      .cls-49 {
        fill: url(#linear-gradient-6);
      }

      .cls-50 {
        fill: #aa4887;
      }

      .cls-51 {
        fill: #c2c657;
      }

      .cls-52 {
        fill: #00614d;
      }

      .cls-8 {
        fill: #00657e;
        opacity: .2;
      }

      .cls-53 {
        fill: #006695;
      }

      .cls-54 {
        fill: #af012a;
      }

      .cls-55 {
        mask: url(#mask-4);
      }

      .cls-56 {
        fill: #c51b3d;
      }

      .cls-9 {
        fill: #2f3ed8;
      }

      .cls-57 {
        fill: url(#linear-gradient);
      }

      .cls-58 {
        fill: #008b8d;
      }

      .cls-59 {
        fill: #a34d86;
      }

      .cls-60 {
        mask: url(#mask-3);
      }
    </style>
    <mask id="mask" x="-426.4" y="-133.8" width="1270.7" height="886.3" maskUnits="userSpaceOnUse">
      <g id="mask0_466_2617">
        <path class="cls-21" d="M807.1-133.8L-426.4-78.6l37.2,831.1,1233.5-55.3-37.2-831.1Z"/>
      </g>
    </mask>
    <linearGradient id="linear-gradient" x1="151.6" y1="-282.2" x2="47.2" y2="9.6" gradientTransform="translate(0 348) scale(1 -1)" gradientUnits="userSpaceOnUse">
      <stop offset="0" stop-color="#6ccfc0"/>
      <stop offset="0" stop-color="#65cdbd"/>
      <stop offset="0" stop-color="#4cc6b6"/>
      <stop offset=".1" stop-color="#34c0b1"/>
      <stop offset=".2" stop-color="#17bcaf"/>
      <stop offset=".3" stop-color="#00baab"/>
      <stop offset=".5" stop-color="#00b9ab"/>
      <stop offset=".6" stop-color="#00b6a6"/>
      <stop offset=".8" stop-color="#0a9"/>
      <stop offset="1" stop-color="#009984"/>
    </linearGradient>
    <mask id="mask-1" x="-416.7" y="-99.8" width="1279.5" height="831.9" maskUnits="userSpaceOnUse">
      <g id="mask1_466_2617">
        <path class="cls-21" d="M862.8-99.8H-416.7v831.9H862.8V-99.8Z"/>
      </g>
    </mask>
    <linearGradient id="linear-gradient-2" x1="339.1" y1="-338.3" x2="47.1" y2="153" gradientTransform="translate(0 348) scale(1 -1)" gradientUnits="userSpaceOnUse">
      <stop offset="0" stop-color="#6ccfc0"/>
      <stop offset="0" stop-color="#65cdbd"/>
      <stop offset="0" stop-color="#4cc6b6"/>
      <stop offset=".1" stop-color="#34c0b1"/>
      <stop offset=".2" stop-color="#17bcaf"/>
      <stop offset=".3" stop-color="#00baab"/>
      <stop offset=".5" stop-color="#00b9ab"/>
      <stop offset=".6" stop-color="#00b6a6"/>
      <stop offset=".8" stop-color="#0a9"/>
      <stop offset="1" stop-color="#009984"/>
    </linearGradient>
    <mask id="mask-2" x="-462.9" y="-126.7" width="1386.2" height="842.9" maskUnits="userSpaceOnUse">
      <g id="mask2_466_2617">
        <path class="cls-21" d="M883.7-115.7l-1339.8-11-6.8,831.9,1339.8,11,6.8-831.9Z"/>
      </g>
    </mask>
    <linearGradient id="linear-gradient-3" x1="717.1" y1="-287.9" x2="884.8" y2="40.7" gradientTransform="translate(0 348) scale(1 -1)" gradientUnits="userSpaceOnUse">
      <stop offset="0" stop-color="#6ccfc0"/>
      <stop offset="0" stop-color="#65cdbd"/>
      <stop offset="0" stop-color="#4cc6b6"/>
      <stop offset=".1" stop-color="#34c0b1"/>
      <stop offset=".2" stop-color="#17bcaf"/>
      <stop offset=".3" stop-color="#00baab"/>
      <stop offset=".5" stop-color="#00b9ab"/>
      <stop offset=".6" stop-color="#00b6a6"/>
      <stop offset=".8" stop-color="#0a9"/>
      <stop offset="1" stop-color="#009984"/>
    </linearGradient>
    <mask id="mask-3" x="-378.7" y="-106.6" width="1234.7" height="831.9" maskUnits="userSpaceOnUse">
      <g id="mask3_466_2617">
        <path class="cls-21" d="M856-106.6H-378.7v831.9H856V-106.6Z"/>
      </g>
    </mask>
    <linearGradient id="linear-gradient-4" x1="545.7" y1="-293.1" x2="350.5" y2="208.2" gradientTransform="translate(0 348) scale(1 -1)" gradientUnits="userSpaceOnUse">
      <stop offset="0" stop-color="#3ec6b5"/>
      <stop offset="0" stop-color="#1abeae"/>
      <stop offset=".1" stop-color="#00b8a7"/>
      <stop offset=".2" stop-color="#00b4a3"/>
      <stop offset=".3" stop-color="#00b09f"/>
      <stop offset=".5" stop-color="#00af9f"/>
      <stop offset=".6" stop-color="#00ab99"/>
      <stop offset=".8" stop-color="#009d89"/>
      <stop offset="1" stop-color="#008f7a"/>
    </linearGradient>
    <linearGradient id="linear-gradient-5" x1="519.3" y1="-320.5" x2="365.2" y2="-169.3" gradientTransform="translate(0 348) scale(1 -1)" gradientUnits="userSpaceOnUse">
      <stop offset="0" stop-color="#3ec6b5"/>
      <stop offset="0" stop-color="#1abeae"/>
      <stop offset=".1" stop-color="#00b8a7"/>
      <stop offset=".2" stop-color="#00b4a3"/>
      <stop offset=".3" stop-color="#00b09f"/>
      <stop offset=".5" stop-color="#00af9f"/>
      <stop offset=".6" stop-color="#00ab99"/>
      <stop offset=".8" stop-color="#009d89"/>
      <stop offset="1" stop-color="#008f7a"/>
    </linearGradient>
    <mask id="mask-4" x="147.7" y="-146.5" width="1270.7" height="886.3" maskUnits="userSpaceOnUse">
      <g id="mask4_466_2617">
        <path class="cls-21" d="M184.9-146.5l1233.5,55.3-37.2,831.1-1233.5-55.3,37.2-831.1Z"/>
      </g>
    </mask>
    <linearGradient id="linear-gradient-6" x1="866.9" y1="-268.5" x2="971.2" y2="23.3" gradientTransform="translate(0 348) scale(1 -1)" gradientUnits="userSpaceOnUse">
      <stop offset="0" stop-color="#6ccfc0"/>
      <stop offset="0" stop-color="#65cdbd"/>
      <stop offset="0" stop-color="#4cc6b6"/>
      <stop offset=".1" stop-color="#34c0b1"/>
      <stop offset=".2" stop-color="#17bcaf"/>
      <stop offset=".3" stop-color="#00baab"/>
      <stop offset=".5" stop-color="#00b9ab"/>
      <stop offset=".6" stop-color="#00b6a6"/>
      <stop offset=".8" stop-color="#0a9"/>
      <stop offset="1" stop-color="#009984"/>
    </linearGradient>
  </defs>
  <!-- Generator: Adobe Illustrator 28.7.1, SVG Export Plug-In . SVG Version: 1.2.0 Build 142)  -->
  <g>
    <g id="Layer_1">
      <g class="cls-23">
        <g>
          <path class="cls-45" d="M138.6,284s0,0-.1,0c-.5,0-.8-.6-.8-1.1l5.5-81.9c0-.6.4-1,.9-.9.5,0,.8.6.8,1.1l-5.5,81.9c0,.5-.4.9-.8.9Z"/>
          <path class="cls-45" d="M130.2,299.5s0,0-.1,0c-.5,0-.8-.6-.8-1.1l5.5-81.9c0-.6.4-1,.9-.9.5,0,.8.6.8,1.1l-5.5,81.9c0,.5-.4.9-.8.9Z"/>
          <path class="cls-32" d="M117.7,607.8l13.5-7.3.7-19.6-13-1.7,13.3-6.5.7-19.3-12.3-2.8,12.6-5.7.7-19.1-9.2-2.7,9.5-5.8.6-18.6-7.3-2.9,7.6-5.9.7-18.7-8.2-3.6,8.5-5,.6-18.3-7.9-4.3,8.2-4.6.6-17.8-7.6-5,7.9-4.1.6-17.3-6.9-5.4,7.2-4.1.6-16.6-6.5-5.8,6.8-4,.6-15.8-6.4-6.6,6.7-3.7,2.7-77.7c-61.5,73.6-73,203.4-51.1,369.1h38.3c0,0,.4-11.7.4-11.7l-13.2-1Z"/>
          <path class="cls-57" d="M143.4,251.3C33.5,297.6-7.7,473.8,23.1,626.8l69.2-6.3c-21.9-165.8-10.4-295.5,51.1-369.1Z"/>
          <path class="cls-4" d="M80.6,302.5c.1,0,.3-.1.4-.2,10.3-5.2,20.9-9.2,31.8-12.2-58.9,58.8-95,154.2-94.3,250-1.3-15.2-2.2-31.3-2.4-47.8,2.2-32.4,7.5-63.7,16-92.5,11.4-38.9,27.9-71.8,48.6-97.3ZM72,502.9c1.6-57.9,6.5-115.8,17-172-23.3,40.4-29.1,92.6-32.7,142.7-3.6,50.1-6,102-23.9,146.6,9.6-.1,20.3,2.3,29-2.5,10.4-36.2,9.6-76,10.7-114.7Z"/>
          <path class="cls-4" d="M26.3,620.8c20.4.7,40.7-1.3,60.7-5.9-20.7-108.9-10.4-227,27-327-10.7,1.6-21.7,5.5-31.1,11.8,9,18.7,6,43.5,3,64.8-6.9,48.7-13.7,97.5-20.6,146.2-2.8,19.7-5.6,39.6-11.5,58.1-5.9,18.5-14.1,41.4-27.5,52Z"/>
          <path class="cls-3" d="M120.1,279.8c-27.3,46.1-40.4,103.9-44.5,161.7-4.2,57.8,0,116.2,4.1,174.3,0,1.2.2,2.5.4,3.7l-40.9,3.8c7.2-9.7,10.9-23.3,13.7-36.5,11-51.9,11.8-106.5,17.8-159.8,5.9-53.3,20.3-108.4,49.4-147.2ZM97.1,286.2c-35.7,39.3-59,94.7-69.7,153.2-10.7,58.6-9.3,120.2-.8,179.9-17.6-174.9,39.3-296.8,70.5-333.1Z"/>
          <path class="cls-45" d="M26.3,626.5l3.2,16.9,65.7-2.9-2.7-20-66.2,6.1Z"/>
          <path class="cls-32" d="M92.5,620.4h38c0,0-.5,18.5-.5,18.5l-34.8,1.6-2.7-20Z"/>
          <path class="cls-45" d="M79.5,300.7c13.2-10.9,29.8-17.7,41.8-17h0c6.5-11.8,13.8-22.6,22-32.4-24.8,10.4-46.1,27.5-63.8,49.4Z"/>
          <path class="cls-4" d="M100.5,371.6c-9.5,65.7-10.8,132.6-3.8,198.7,2.4,22.3,5.8,44.9,15.3,65.2,5.9.6,11.7.5,17.6-.2-19.9-19.3-26.1-48.9-29.4-76.4-7.3-61.4-2-125.3.3-187.2Z"/>
          <path class="cls-32" d="M141.4,308.5l2-57.2c-8.2,9.8-15.5,20.7-22,32.4l20,24.8Z"/>
          <path class="cls-4" d="M123,616c1.2-90.4,1.6-181.2,2.9-271.6.4-28.1,1.3-58.3,14.8-80.4-.5,16.4-13.2,252-17.6,352.1Z"/>
          <path class="cls-25" d="M83.4,525.9c0-.3,0-.6,0-.9-14.2,2.3-55.6,11-69.8,15.7,0,.3,0,.7,0,1,13.5-4.5,55.3-13.6,69.8-15.8Z"/>
          <path class="cls-25" d="M82.5,502c0-.3,0-.7,0-1-13.3,1.9-53.8,10.7-69,16.5,0,.4,0,.7,0,1.1,14.5-5.5,55.5-14.6,69-16.6Z"/>
          <path class="cls-25" d="M85,550.6c0-.3,0-.7,0-1-7.3,1.2-21,3.9-35.2,6.8-12.9,2.7-27.8,5.9-35.1,8,0,.3,0,.7,0,1,13-3.6,55.2-12.2,70.2-14.7Z"/>
          <path class="cls-25" d="M87.2,575.7c0-.3,0-.6,0-.9-15.5,2.8-56.5,10.3-70.1,13.5,0,.3,0,.7.1,1,13.1-3,54.4-11,70.1-13.6Z"/>
          <path class="cls-25" d="M19.1,452.1c16.7-7.8,51.5-17.2,64.6-18.1,0-.3,0-.7,0-1-12.4,1-47.1,9.8-64.4,17.9,0,.4-.1.9-.2,1.3Z"/>
          <path class="cls-25" d="M82.6,455.9c0-.3,0-.7,0-1-12.3,1.3-49.4,10.3-66.2,17.6,0,.4,0,.8-.1,1.1,16.2-7.2,53.3-16.6,66.3-17.8Z"/>
          <path class="cls-25" d="M82.2,478.6c0-.3,0-.7,0-1-12.6,1.6-51.7,10.7-67.8,17.2,0,.4,0,.7,0,1.1,15.4-6.4,54.6-15.8,67.9-17.3Z"/>
          <path class="cls-25" d="M90,601.5c0-.3,0-.7-.1-1l-69.3,12.2c0,.3.1.7.2,1l69.3-12.2Z"/>
          <path class="cls-25" d="M55.6,338.2c-.3.6-.7,1.3-1,1.9,13.9-10.3,34.5-18.8,51.4-20.8.1-.4.3-.7.4-1.1-16.4,1.9-36.6,10-50.7,19.9Z"/>
          <path class="cls-25" d="M63.6,324.3c-.5.8-1,1.7-1.6,2.6,13.2-11.5,32.8-20.6,50.2-23.3.2-.4.3-.7.5-1.1-16.8,2.5-35.7,11-49.1,21.8Z"/>
          <path class="cls-25" d="M47.6,354.3c-.3.5-.5,1.1-.8,1.6,14.7-9.7,36.9-18.1,53.4-19.6.1-.4.2-.7.3-1.1-16.2,1.4-38.1,9.6-53,19.1Z"/>
          <path class="cls-25" d="M28,409.6c-.1.4-.2.8-.3,1.2,16.8-8.9,46.4-17.5,60.4-18.4,0-.3,0-.7.2-1-13.7.8-43,9.3-60.2,18.2Z"/>
          <path class="cls-25" d="M22.9,431.1c16.9-8.4,49.1-17.4,62.6-18.3,0-.4,0-.7.1-1-13.2.8-45.1,9.7-62.4,18.1,0,.4-.2.8-.2,1.2Z"/>
          <path class="cls-25" d="M33.7,390.1c-.2.5-.3,1-.5,1.5,16.2-9.1,43.1-17.8,58.1-18.7,0-.4.1-.7.2-1.1-15,.8-41.4,9.2-57.8,18.3Z"/>
          <path class="cls-25" d="M40.3,371.6c-.2.5-.4,1-.6,1.5,15.7-9.5,40.3-17.8,55.7-19,0-.4.2-.7.3-1.1-15.1,1.1-39.4,9.2-55.4,18.6Z"/>
          <path class="cls-58" d="M83.2,525c0-.3,0-.6,0-.9-14.2,2.3-55.6,11-69.8,15.7,0,.3,0,.7,0,1,13.5-4.5,55.3-13.6,69.8-15.8Z"/>
          <path class="cls-58" d="M82.3,501c0-.3,0-.7,0-1-13.3,1.9-53.8,10.7-69,16.5,0,.4,0,.7,0,1.1,14.5-5.5,55.5-14.6,69-16.6Z"/>
          <path class="cls-58" d="M84.8,549.6c0-.3,0-.7,0-1-7.3,1.2-21,3.9-35.2,6.8-12.9,2.7-27.8,5.9-35.1,8,0,.3,0,.7,0,1,13-3.6,55.2-12.2,70.2-14.7Z"/>
          <path class="cls-58" d="M87,574.8c0-.3,0-.6,0-.9-15.5,2.8-56.5,10.3-70.1,13.5,0,.3,0,.7.1,1,13.1-3,54.4-11,70.1-13.6Z"/>
          <path class="cls-58" d="M18.9,451.2c16.7-7.8,51.5-17.2,64.6-18.1,0-.3,0-.7,0-1-12.4,1-47.1,9.8-64.4,17.9,0,.4-.1.9-.2,1.3Z"/>
          <path class="cls-58" d="M82.4,455c0-.3,0-.7,0-1-12.3,1.3-49.4,10.3-66.2,17.6,0,.4,0,.8-.1,1.1,16.2-7.2,53.3-16.6,66.3-17.8Z"/>
          <path class="cls-58" d="M82,477.6c0-.3,0-.7,0-1-12.6,1.6-51.7,10.7-67.8,17.2,0,.4,0,.7,0,1.1,15.4-6.4,54.6-15.8,67.8-17.3Z"/>
          <path class="cls-58" d="M89.8,600.6c0-.3,0-.7-.1-1l-69.3,12.2c0,.3.1.7.2,1l69.3-12.2Z"/>
          <path class="cls-58" d="M55.4,337.3c-.3.6-.7,1.3-1,1.9,13.9-10.3,34.5-18.8,51.4-20.8.1-.4.3-.7.4-1.1-16.4,1.9-36.6,10-50.7,19.9Z"/>
          <path class="cls-58" d="M63.5,323.4c-.5.8-1,1.7-1.6,2.6,13.2-11.5,32.8-20.6,50.2-23.3.2-.4.3-.7.5-1.1-16.8,2.5-35.7,11-49.1,21.8Z"/>
          <path class="cls-58" d="M47.4,353.3c-.2.5-.5,1.1-.8,1.6,14.7-9.7,36.9-18.1,53.4-19.6.1-.4.2-.7.3-1.1-16.2,1.4-38.1,9.6-53,19.1Z"/>
          <path class="cls-58" d="M27.8,408.6c-.1.4-.2.8-.3,1.2,16.8-8.9,46.4-17.5,60.4-18.4,0-.3,0-.7.1-1-13.7.8-43,9.3-60.2,18.2Z"/>
          <path class="cls-58" d="M22.8,430.2c16.9-8.4,49.1-17.4,62.6-18.3,0-.3,0-.7.1-1-13.2.8-45.1,9.7-62.4,18.1,0,.4-.2.8-.2,1.2Z"/>
          <path class="cls-58" d="M33.5,389.2c-.2.5-.3,1-.5,1.5,16.2-9.1,43.1-17.8,58.1-18.7,0-.4.1-.7.2-1.1-15,.8-41.3,9.2-57.8,18.3Z"/>
          <path class="cls-58" d="M40.1,370.7c-.2.5-.4,1-.6,1.5,15.7-9.5,40.3-17.8,55.7-19,0-.4.2-.7.3-1.1-15.1,1.1-39.4,9.2-55.4,18.6Z"/>
          <path class="cls-4" d="M140.3,257.2c-58.5,91-64.1,224.1-41.2,379.7l25.3-1.1c-29.5-17.2-42.9-282.9,15.9-378.5Z"/>
          <path class="cls-36" d="M130,412.4l-30.8-20.3c.4-2.8.8-5.7,1.3-8.5l37.4,24.7-7.9,4.1ZM137,435.2l-40.4-22.5c-.3,2.8-.6,5.7-.9,8.5l33.2,18.4,8.1-4.5ZM136,462.4l-42.2-19.4c-.2,2.8-.4,5.7-.5,8.6l34.3,15.8,8.4-4.9ZM131.6,385.7l7.2-4.1-33.1-25.6c-.6,2.8-1.2,5.6-1.7,8.4l27.6,21.4ZM132.9,359.2l6.8-4-27.9-25c-.7,2.7-1.4,5.5-2.1,8.2l23.2,20.8ZM133.9,332.8l6.7-3.7-21.9-22.6c-.9,2.7-1.7,5.4-2.5,8.1l17.7,18.3ZM132.2,572.6l-37.4-5.3c.2,2.8.4,5.6.7,8.5l23.5,3.3,13.2-6.5ZM117.7,607.8l13.5-7.3-33.7-2.5c.3,2.8.6,5.6.9,8.4l19.3,1.5h0ZM135.1,489.7l-42.7-15.9c0,2.8-.1,5.7-.2,8.6l35.3,13.1,7.5-5.8ZM120.6,550.5l12.6-5.7-40.2-8.5c.1,2.8.3,5.7.4,8.5l27.2,5.7ZM134.1,517.1l-42-12.1c0,2.8,0,5.7.1,8.5l32.4,9.4,9.5-5.8Z"/>
          <path class="cls-58" d="M143.4,251.3c-9,11.5-17,24.1-23.8,37.7-6.9,13.6-12.7,28-17.4,42.9-9.5,30-14.8,61.9-17.5,94.1-2.7,32.2-2.9,64.8-1.2,97.3,1.6,32.5,4.9,64.9,9.1,97.1-2.3-16.1-4.3-32.2-6.1-48.4-1.6-16.2-2.9-32.4-3.8-48.7-.9-16.3-1.3-32.6-1.2-48.8.1-16.3.7-32.5,2.1-48.7,2.8-32.3,8.2-64.3,17.9-94.3,4.8-15,10.7-29.4,17.7-43,7-13.5,15.2-26,24.3-37.3Z"/>
          <path class="cls-4" d="M102.5,285.5c5.7-1.9,11.7-3,17.6-3.3,4.9-9.4,11.4-18.2,18-25.6-10.1,12.3-23,22.2-35.7,28.9Z"/>
          <path class="cls-4" d="M94.9,288.7c7.3-3.9,15.1-6.2,23-6.8,5.8-7.8,11.6-15.7,17.4-23.5-13.1,9.9-27.3,20.4-40.3,30.4Z"/>
          <path class="cls-4" d="M54.5,628.8c15.5-.7,29.6.5,39.6,3l-1.5-11.3-66.2,6.1,1.1,5.5c7.9-1.7,17.2-2.8,27.1-3.3Z"/>
          <path class="cls-10" d="M34.8,629.6l5-.4,1.9,13.6-5,.2-2-13.5ZM52.1,628.3l-5,.4,1.9,13.9,5-.2-1.9-14ZM58.2,627.9l-5,.4,1.9,14.1,5-.2-1.9-14.2ZM46,628.8l-5,.4,1.9,13.7,5-.2-1.9-13.8ZM85.7,640.9l6-.3-1.8-15.2-6.1.5,1.9,15ZM33.7,629.7l-4.4.3,2.2,13.3,4.1-.2-1.9-13.4ZM82.7,626l-5,.4,1.9,14.8,5-.2-1.9-15ZM76.6,626.5l-5,.4,1.9,14.6,5-.2-1.9-14.8ZM64.3,627.4l-5,.4,1.9,14.2,5-.2-1.9-14.4ZM70.5,626.9l-5,.4,1.9,14.4,5-.2-1.9-14.6Z"/>
          <path class="cls-4" d="M94.2,638.9c-.9-5.6-1.8-11.2-2.7-16.8-21.3,2-42.7,3.9-64,5.9.1.9,0,1.7.2,2.7,9.6-1.5,19.5-1.2,29.2-.6,12.7.8,25.7,2.1,37.3,8.9Z"/>
          <path class="cls-4" d="M118.5,303.8c2.3-5.8,5.3-11.2,8.8-15.8,1.1-1.4,2.6-2.9,4.2-2.2,1.4.6,1.9,2.7,2.3,4.5,1.8,9.9,3,19.9,3.4,30,1.5-20.6,2.8-40.5,3.2-61.2-7.9,14.5-16.2,28.6-21.9,44.6Z"/>
        </g>
      </g>
      <g class="cls-13">
        <g>
          <path class="cls-30" d="M209.8,91l-4.4,100,4.4-.4v-99.5Z"/>
          <path class="cls-30" d="M190.8,222l-.3-88.4,2.6,62.3,16.7-13.2,12.3,8,5.6-49.4-3.7,67-33.1,13.7Z"/>
          <path class="cls-46" d="M190.5,133.6l4.7,60.7-2.1,1.6-2.6-62.3Z"/>
          <path class="cls-46" d="M209.8,182.6l15,9.9,2.8-51.3-1.2,69.8-16.7-2.9v-25.5Z"/>
          <path class="cls-22" d="M274,292l-4.5-3,3-4c-2.9-12.9-6.3-25.4-10.4-37.4l-39.4-33.8c32.9,95.3,27.1,251.3,9,426.6h20.4c30.9-133.3,41.7-252,21.8-348.4Z"/>
          <path class="cls-14" d="M266.1,289.7l4-5.4c-2.8-12.2-6.1-24-9.7-35l-23.4-20.1c20.2,55.3,35.3,113.4,45,172.8.1-39.4-3.1-75.4-9.8-108.2l-6.1-4.1Z"/>
          <path class="cls-14" d="M255.6,615.4c-4.1-15-9.2-29.6-15.2-43.6-.8,9.7-1.7,19.3-2.6,28.8,5.6,8.1,10.8,16.7,15.4,25.7.8-3.7,1.6-7.3,2.4-10.9Z"/>
          <path class="cls-14" d="M249.1,297.6c-1.1,5.1-2.9,10.6-4.5,16.1,4.9,51.4,4.8,108.8,2,166.8.2,4.1.5,8.2.8,12.2,2,29.9,5.5,60.8,15.2,88.3,4.7-24.5,8.6-48.1,11.6-70.8-11.6-70.2-20-141.2-25.1-212.6Z"/>
          <path class="cls-10" d="M222.7,213.8l-62.2,30.1c-4.9,17.7-9.2,36-12.8,55l7.7,6.7-9.7,4.7c-16.2,92.8-16.7,201.8,1.6,330.1h84.6c18-175.3,23.8-331.4-9-426.6Z"/>
          <path class="cls-12" d="M149,637.8c-17.2-121.9-17.7-231.4-1.6-325.6l12.3-6-9.7-8.5c3.4-17.9,7.5-35.3,12.1-51.9l59.4-28.7c34.8,103.9,22.8,278.8,8.3,420.6h-80.9Z"/>
          <g class="cls-18">
            <path class="cls-19" d="M226.2,232.6h0c-18,108.7-47.4,214.5-87.2,314.2.4,5.2.8,10.5,1.3,15.8,40.9-105,72.8-215.9,85.9-330.1Z"/>
            <path class="cls-19" d="M242.2,340.8c-14.1,102.8-46.5,201.8-94.4,288.3.4,2.7.7,5.3,1.1,8,51.9-85.1,85.6-186.1,93.3-296.3Z"/>
            <path class="cls-19" d="M203,230.7c-23.2,50-44.7,101.2-64.5,153.4-.6,7-1,14.1-1.4,21.2,4.2-14.5,8.7-29,13.5-43.1,6.4-19,14-37.3,21.6-55.6,10.3-24.7,20.5-51.2,30.8-75.9Z"/>
          </g>
          <path class="cls-47" d="M173,237.8v-13.8l45.5-27.5-1,19.8-44.4,21.5Z"/>
          <path class="cls-59" d="M218.5,196.6l31.1,30-.8,9.6-26.1-22.3-5.3,2.5,1-19.8Z"/>
          <path class="cls-25" d="M236.1,266.6c-.6-3.2-1.2-6.4-1.8-9.5l-86.6,41.8,7.7,6.7,80.8-39.1Z"/>
          <path class="cls-20" d="M272.5,285l-38.2-27.9h0c.6,3.1,1.2,6.3,1.8,9.5h0s37.9,25.4,37.9,25.4l-4.5-3,3-4Z"/>
          <path class="cls-47" d="M283.9,313.2c-.5-2.9-1-5.8-1.6-8.6l-41.2-22.9-104.1,45.4c-.4,2.7-.9,5.5-1.3,8.2l106.7-45.1,41.4,23.1Z"/>
          <path class="cls-47" d="M288.5,348.6c-.2-2.7-.5-5.4-.8-8l-41.7-21.3-114.2,45.7c-.3,2.6-.6,5.2-.8,7.8l115.7-45.5,41.8,21.3Z"/>
          <path class="cls-47" d="M290.6,384.9c0-2.5-.1-5.1-.2-7.6l-41.6-19.2-120.1,43.8c-.2,2.5-.3,5-.4,7.5l120.8-43.6,41.6,19.1Z"/>
          <path class="cls-47" d="M249,446.3l39,13.9c.2-2.4.4-4.7.6-7.1l-39.4-14c0,2.4-.2,4.8-.2,7.2Z"/>
          <path class="cls-47" d="M244.3,531l33.4,8.1c.4-2.3.8-4.6,1.2-6.8l-34.1-8.2c-.2,2.3-.3,4.6-.5,7Z"/>
          <path class="cls-47" d="M244.8,524l-114.5,19.9c.2,2.3.4,4.6.6,6.9l113.4-19.9h0s.5-7,.5-7Z"/>
          <path class="cls-47" d="M133.6,579.2c.2,2.3.5,4.6.8,6.9l106.2-11.6,29.4,5.3c.5-2.3.9-4.5,1.4-6.8l-30.2-5.4-107.6,11.7Z"/>
          <path class="cls-47" d="M138,615c.3,2.3.6,4.6,1,6.9l97.2-3.4,24.5,2.9c.5-2.3,1.1-4.5,1.6-6.8l-25.4-3-98.9,3.4Z"/>
          <path class="cls-47" d="M128,508.8c.1,2.3.2,4.7.4,7l118.7-27.6,36.6,11c.3-2.3.6-4.6.9-6.9l-37.1-11.1-119.5,27.7Z"/>
          <path class="cls-47" d="M249.2,439.1l-122.3,34.5c0,2.4,0,4.7.1,7.1l121.9-34.4c0-1.9.1-3.8.2-5.7v-1.5Z"/>
          <path class="cls-47" d="M127,438c0,2.4-.1,4.8-.1,7.3l122.8-39.8,40.7,16.6c0-2.4.1-4.9.2-7.3l-40.9-16.7-122.6,39.9Z"/>
          <path class="cls-25" d="M135.8,335.2l5.6,2.3,99.4-39.5,1.7-7.9-106.7,45.1Z"/>
          <path class="cls-25" d="M131,372.8l115.7-45.5-2.6,6.8-106.9,39.9-6.2-1.3Z"/>
          <path class="cls-25" d="M128.2,409.4l120.8-43.6-3,8.5-111.3,35.8-6.5-.6Z"/>
          <path class="cls-25" d="M126.9,445.3l122.8-39.8-3.3,5.7-112.8,36.2-6.6-2.1Z"/>
          <path class="cls-25" d="M127,480.7l121.9-34.4-3.4,6.2-111.8,29.8-6.7-1.7Z"/>
          <path class="cls-25" d="M128.4,515.8l118.7-27.6-3.4,4.9-108.7,24.9-6.6-2.2Z"/>
          <path class="cls-25" d="M130.9,550.9l113.4-19.9-3.2,4.8-103.7,17.2-6.5-2.1Z"/>
          <path class="cls-25" d="M134.4,586.1l106.2-11.6-2.9,3.4-97.2,9.4-6.2-1.2Z"/>
          <path class="cls-25" d="M139,621.9l97.2-3.4-2.4,1.7-89,3-5.8-1.3Z"/>
          <path class="cls-20" d="M240.8,298l37.8,19.9,5.4-4.7-41.4-23.1-1.7,7.9Z"/>
          <path class="cls-20" d="M246.7,327.3l41.8,21.3-6.2,4-38.2-18.4,2.6-6.8Z"/>
          <path class="cls-20" d="M290.6,384.9l-6.6,3-37.9-13.6,3-8.5,41.6,19.1Z"/>
          <path class="cls-20" d="M290.3,422.1l-6.7,2.8-37.3-13.7,3.3-5.7,40.7,16.6Z"/>
          <path class="cls-20" d="M288,460.2l-6.6,2.4-35.9-10,3.4-6.2,39,13.9Z"/>
          <path class="cls-20" d="M283.8,499.2l-36.6-11-3.4,4.9,33.6,8.8,6.4-2.7Z"/>
          <path class="cls-20" d="M244.3,531l33.4,8.1-6.1,2.9-30.6-6.2,3.2-4.8Z"/>
          <path class="cls-20" d="M240.6,574.5l29.4,5.3-5.5,2.6-26.8-4.4,2.9-3.4Z"/>
          <path class="cls-20" d="M236.2,618.5l24.5,2.9-4.4,1.2-22.5-2.4,2.4-1.7Z"/>
          <path class="cls-59" d="M241.2,281.6l41.2,22.9,1.6,8.6-41.4-23.1-1.3-8.5Z"/>
          <path class="cls-59" d="M246,319.3l.7,8,41.1,20.8v-7.6c0,0-41.8-21.3-41.8-21.3Z"/>
          <path class="cls-59" d="M248.7,358.1l.3,7.6,41.6,19.1-.2-7.6-41.6-19.2Z"/>
          <path class="cls-59" d="M249.7,398.1v7.4s40.7,16.6,40.7,16.6l.2-7.3-40.9-16.7Z"/>
          <path class="cls-59" d="M249.2,439.1l-.2,7.2,39,13.9.6-7.1-39.4-14Z"/>
          <path class="cls-59" d="M247.5,481.2l37.1,11.1-.9,6.9-36.6-11,.4-7.1Z"/>
          <path class="cls-59" d="M244.8,524l34.1,8.2-1.2,6.8-33.4-8.1.5-7Z"/>
          <path class="cls-59" d="M241.2,567.6l30.2,5.4-1.4,6.8-29.4-5.3.6-6.9Z"/>
          <path class="cls-59" d="M236.9,611.6l25,3.3-1.2,6.4-24.5-2.9.7-6.9Z"/>
          <path class="cls-46" d="M209.8,91l4.2,98.3h-4.2v-98.3Z"/>
        </g>
      </g>
      <g class="cls-33">
        <g>
          <path class="cls-30" d="M744.1,128.7s0,0,.1,0c.6,0,1.1-.7,1-1.4l-4-54.8c0-.7-.6-1.3-1.2-1.2-.6,0-1.1.7-1,1.4l4,54.8c0,.7.5,1.2,1.1,1.2Z"/>
          <path class="cls-30" d="M737,138s0,0,0,0c.6,0,1.1-.7,1.1-1.4l-2.3-45.7c0-.7-.6-1.3-1.2-1.2-.6,0-1.1.7-1.1,1.4l2.3,45.7c0,.7.5,1.2,1.1,1.2Z"/>
          <path class="cls-46" d="M732,178.4l-1-51.1,8.8-10.8,3,51.4-10.8,10.4Z"/>
          <path class="cls-30" d="M739.8,116.6l10.9,6.3,7.8,45.8-15.7-.7-3-51.4Z"/>
          <path class="cls-40" d="M811.7,196.4c-.1,11.2,16.1,23.1,36.3,26.7,20.2,3.6,36.6-2.6,36.7-13.8s-16.1-23.1-36.3-26.7c-20.1-3.6-36.6,2.6-36.7,13.8Z"/>
          <path class="cls-10" d="M809.3,199.9c-.1,11.2,16.1,23.1,36.3,26.7,20.2,3.6,36.6-2.6,36.7-13.8.1-11.2-16.1-23.1-36.3-26.7-20.2-3.5-36.6,2.6-36.7,13.8Z"/>
          <path class="cls-40" d="M755,151.9c-.1,11.2,16.1,23.1,36.3,26.7,20.2,3.6,36.6-2.6,36.7-13.8s-16.1-23.1-36.3-26.7c-20.2-3.6-36.6,2.6-36.7,13.8Z"/>
          <path class="cls-10" d="M752.6,155.3c-.1,11.2,16.1,23.1,36.3,26.7,20.2,3.6,36.6-2.6,36.7-13.8.1-11.2-16.1-23.1-36.3-26.7-20.2-3.6-36.6,2.6-36.7,13.8Z"/>
          <path class="cls-40" d="M889.6,265l.2-24.4c-26.9-46.6-86.6-96.1-133.5-96.5l2.1,35.5,131.2,85.3Z"/>
          <path class="cls-10" d="M756.3,144.2l-34.1,43,1.4,30.3,34.8-37.7-2.1-35.5Z"/>
          <path class="cls-4" d="M829.5,181.1c-19.2-17.3-42.4-28.6-66.6-32.3,2.2,9.7,3.3,20.2,2.8,30.2,25,12.8,49.8,28.2,73.3,44.3-4.9-5.8-8.9-11.7-11.7-19.1-2.8-7.4-1.6-16.2,2.2-23.1Z"/>
          <path class="cls-4" d="M754.8,150.4c1.1,11.9,1.4,23.9,1,35.9-6.3,5.4-12.2,11.8-18,18-1.2-9.5-2.7-18.3-3.9-27.8,6.8-8.3,14-17.8,20.9-26.1Z"/>
          <path class="cls-4" d="M756.3,144.2c-1.1,26.6-13.6,50.7-32.7,73.2l34.8-37.7-2.1-35.5Z"/>
          <path class="cls-4" d="M756.3,144.2l2.1,36.8,131.2,87.9.2-28.1c-3.2,34.9-100.8-69.6-133.5-96.5Z"/>
          <path class="cls-22" d="M717.3,292.3l-10.1-1.9c-.6-18.1-1.1-36.1-1.4-53.7l58.7-63.6,21.9,450.6-53.6-.4c-12.3-113.3-21.2-221.5-25.1-322.2l9.7-8.7Z"/>
          <path class="cls-34" d="M922.2,324.3c.2,11.1.4,22.6.4,34.4h-7.1c2.6,3.1,4.9,6.6,7.1,10-.3,74.5-4.7,162.5-10.9,256l-125.4-1-21.9-450.6c62.4,30.3,123.3,63.7,157.7,151.2Z"/>
          <path class="cls-38" d="M730.6,581.6c-10.6-103.8-17.4-195.6-20.7-279.4,0,0,36-32.8,48.1-45.5-24.3,105.7-33.5,215.9-27.4,324.9Z"/>
          <path class="cls-38" d="M776.8,474.3c-3.2,48.9-6.3,97.7-9.6,146.6l-23.2-.2c-1.3-90.7,7.7-181.6,26.7-269.6l6,123.2Z"/>
          <path class="cls-4" d="M864.7,306.6c-29.9-28.6-60.1-48.9-91-54.7l18.5,366.5,111.9.9c-109.6-19.2-144-355.4-39.4-312.8Z"/>
          <path class="cls-4" d="M763.8,256.7l17.9,361.7-23.2-.2s3.8-91.9-.9-189.8c-4.6-97.9-22-145.3-22-145.3l28.2-26.4Z"/>
          <g class="cls-18">
            <path class="cls-19" d="M795,277.6c1.8,30.2,3.8,59.7,7.2,88.7,3.4,29,8.2,57.5,15.6,85.3,7.6,27.9,19.4,53.9,34.1,77.7,14.7,23.9,32.2,45.7,52.4,64.7-19.1-20.6-35.6-43.3-49.4-67.5-13.8-24.2-25-50.1-32.3-77.3-7.2-27.4-12.4-55.5-16.6-84.1-4.2-28.6-7.5-57.7-11-87.4Z"/>
          </g>
          <path class="cls-4" d="M790.8,256.7c-7.5,154.2,33,289,119.9,347.6-.4,5.8-.8,11.7-1.1,17.7l-121.1-1-18.8-386.8c7.9,6.7,15.5,14.5,21.1,22.4Z"/>
          <path class="cls-4" d="M911,571.6l3.5-203.9c-13-20.1-37-45.6-59.5-59.7,35.1,50.3,51.6,143.1,55.9,263.6Z"/>
          <g class="cls-11">
            <path class="cls-17" d="M801.2,492.1c13.3,45.8,29.6,89.4,52.6,129.5h-4.9c-17.4-17.6-28.3-43.3-37.6-68.3-11.4-30.8-21.7-62.2-30.7-94.1l-2.7-55.9c7,29.8,14.7,59.3,23.3,88.8Z"/>
            <path class="cls-17" d="M835.2,621.4l-46.8-.4-5.9-120.6c4.8,19.5,10.5,38.7,17,57.4,7.2,20.8,15.8,41.5,29.5,57.2,2,2.2,4,4.4,6.2,6.4Z"/>
            <path class="cls-17" d="M910.1,356l3.8,4.5c2.3,2.8,4.4,5.9,6.4,9.1-.3,65-3.7,145.3-10.7,252.5h-.8c-.6-49.3-1.2-98.6-1.9-147.9-.5-42.3-1.4-86.3-18.3-123.7-19.9-44.1-58.9-71.7-97.4-93.4-4.1-2.3-6.1-3.5-12.2-7.6,48.3,16.2,106.3,73.2,131.2,106.5Z"/>
            <path class="cls-17" d="M823.8,297.7c19.8,18,37.6,39.8,49.1,65.8,11.3,25.5,16.2,54.2,19.9,82.6,7.6,58.2,10.6,117.1,9,175.9h0c.7-45.4-3.5-92.9-10.6-137.2-14.2-88.8-57.5-172.8-120.2-225.8v-1.5c18.2,12.3,36.3,25.1,52.9,40.2Z"/>
          </g>
          <path class="cls-25" d="M918,517.2c0,.5,0,.9,0,1.4-25.7-16-102.3-31.6-138.6-38v-1.3c35.9,6.3,112,21.8,138.6,37.9Z"/>
          <path class="cls-25" d="M787.4,545.7c35.7,3.6,104.8,10.5,128.1,17.7,0,.4,0,.9,0,1.3-22.9-7.2-95-14.4-128.1-17.7-1.6-.2-3.2-.3-4.7-.5v-1.3c1.5.2,3.1.3,4.8.5Z"/>
          <path class="cls-25" d="M785.7,610.3l126.9,1c0,.4,0,.9,0,1.3l-126.7-1v-1.3Z"/>
          <path class="cls-25" d="M793.9,578.5c49,2.7,100.8,5.7,120.2,8.7,0,.4,0,.8,0,1.2-21.6-3.3-86.3-6.8-120.2-8.7-3.5-.2-6.7-.4-9.6-.5v-1.3c2.9.2,6.2.3,9.7.5Z"/>
          <path class="cls-25" d="M916.7,541.5c-24.7-11.7-102.9-23.1-135.7-27.8v-1.3c32.4,4.6,110.2,15.9,135.8,27.8,0,.4,0,.9,0,1.3Z"/>
          <path class="cls-25" d="M919.1,494.4c0,.5,0,1,0,1.5-28.2-21-104.9-41.2-141.3-48.5v-1.3c36,7.2,112.4,27.3,141.3,48.4Z"/>
          <path class="cls-25" d="M922.5,380.2c0,.6,0,1.1,0,1.7-35.4-36.2-96-90-152.8-101.9v-1.4c56.7,11.7,117.2,65.2,152.8,101.5Z"/>
          <path class="cls-25" d="M922.2,403.3c0,.6,0,1.1,0,1.7-43.7-43.4-106.9-81.7-150.8-91.4v-1.3c43.8,9.6,106.9,47.7,150.9,91Z"/>
          <path class="cls-25" d="M920.9,449c0,.5,0,1.1,0,1.6-35.6-32.3-108.5-61.4-146.3-70v-1.4c37.6,8.5,110.4,37.4,146.4,69.7Z"/>
          <path class="cls-25" d="M920.1,471.7c0,.5,0,1,0,1.6-31-25.9-105.8-51-143.9-59.2v-1.3c37.8,8.2,112.3,33.1,143.9,59Z"/>
          <path class="cls-25" d="M921.6,426.2c0,.5,0,1.1,0,1.7-38.6-36.9-106.6-71.3-148.7-80.8v-1.3c41.8,9.4,109.8,43.6,148.7,80.5Z"/>
          <path class="cls-52" d="M918,515.6c0,.5,0,.9,0,1.4-25.7-16-102.3-31.6-138.6-38v-1.3c35.9,6.3,112,21.8,138.6,37.9Z"/>
          <path class="cls-52" d="M787.3,544.2c35.7,3.6,104.8,10.5,128.1,17.7,0,.4,0,.9,0,1.3-22.9-7.2-95-14.4-128.1-17.7-1.6-.2-3.2-.3-4.7-.5v-1.3c1.5.2,3.1.3,4.8.5Z"/>
          <path class="cls-52" d="M785.6,608.7l126.9,1c0,.4,0,.9,0,1.3l-126.7-1v-1.3Z"/>
          <path class="cls-52" d="M793.8,576.9c49,2.7,100.8,5.7,120.2,8.7,0,.4,0,.8,0,1.2-21.6-3.3-86.3-6.8-120.2-8.7-3.5-.2-6.7-.4-9.6-.5v-1.3c2.9.2,6.2.3,9.7.5Z"/>
          <path class="cls-52" d="M916.7,539.9c-24.7-11.7-102.9-23.1-135.7-27.8v-1.3c32.4,4.6,110.2,15.9,135.8,27.8,0,.4,0,.9,0,1.3Z"/>
          <path class="cls-52" d="M919.1,492.8c0,.5,0,1,0,1.5-28.2-21-104.9-41.2-141.3-48.5v-1.3c36,7.2,112.4,27.3,141.3,48.4Z"/>
          <path class="cls-52" d="M922.4,378.7c0,.6,0,1.1,0,1.7-35.4-36.2-96-90-152.8-101.9v-1.4c56.7,11.7,117.2,65.2,152.8,101.5Z"/>
          <path class="cls-52" d="M922.1,401.8c0,.6,0,1.1,0,1.7-43.7-43.4-106.9-81.7-150.8-91.4v-1.3c43.8,9.6,107,47.7,150.9,91Z"/>
          <path class="cls-52" d="M920.9,447.4c0,.5,0,1.1,0,1.6-35.6-32.3-108.5-61.4-146.3-70v-1.4c37.6,8.5,110.4,37.4,146.4,69.7Z"/>
          <path class="cls-52" d="M920,470.1c0,.5,0,1,0,1.6-31-25.9-105.8-51-143.9-59.2v-1.3c37.8,8.2,112.3,33.1,143.9,59Z"/>
          <path class="cls-52" d="M921.6,424.7c0,.5,0,1.1,0,1.7-38.6-36.9-106.7-71.3-148.7-80.8v-1.3c41.8,9.4,109.8,43.6,148.7,80.5Z"/>
          <path class="cls-20" d="M777.7,446.2v1.4c0,0-59.5,24.8-59.5,24.8,0-.5,0-.9,0-1.3l59.6-24.8Z"/>
          <path class="cls-20" d="M779.3,479.3v1.3c0,0-58.7,19.7-58.7,19.7,0-.4,0-.9-.1-1.3l58.8-19.7Z"/>
          <path class="cls-20" d="M780.9,512.5v1.3c0,0-57.8,14.6-57.8,14.6,0-.4,0-.9-.1-1.3l57.9-14.6Z"/>
          <path class="cls-20" d="M782.5,545.2v1.3c0,0-56.8,9.5-56.8,9.5,0-.4,0-.9-.1-1.3l56.9-9.5Z"/>
          <path class="cls-20" d="M731.4,611.2c0-.4,0-.9-.1-1.3l54.4.4v1.3c0,0-54.3-.4-54.3-.4Z"/>
          <path class="cls-20" d="M784.1,578.5v1.3c0,0-55.6,4.5-55.6,4.5,0-.4,0-.9-.1-1.3l55.7-4.5Z"/>
          <path class="cls-20" d="M771.2,312.1v1.5c0,0-60.9,43.9-60.9,43.9,0-.5,0-1,0-1.5l61-43.9Z"/>
          <path class="cls-20" d="M769.6,278.8v1.5c0,0-60.8,48.1-60.8,48.1,0-.5,0-1,0-1.5l60.8-48.1Z"/>
          <path class="cls-20" d="M776.1,412.8v1.4c0,0-60.1,29.7-60.1,29.7,0-.5,0-.9-.1-1.4l60.2-29.8Z"/>
          <path class="cls-20" d="M774.5,379.3v1.4c0,0-60.6,34.6-60.6,34.6,0-.5,0-.9,0-1.4l60.7-34.6Z"/>
          <path class="cls-20" d="M772.9,345.9v1.5c0,0-60.8,39.3-60.8,39.3,0-.5,0-1,0-1.4l60.9-39.4Z"/>
          <path class="cls-25" d="M777.7,444.6v1.4c0,0-59.5,24.8-59.5,24.8,0-.4,0-.9-.1-1.3l59.6-24.8Z"/>
          <path class="cls-25" d="M779.3,477.7v1.3c0,0-58.7,19.7-58.7,19.7,0-.4,0-.9-.1-1.3l58.8-19.7Z"/>
          <path class="cls-25" d="M781,510.9v1.3c0,0-57.8,14.6-57.8,14.6,0-.4,0-.9-.1-1.3l57.9-14.6Z"/>
          <path class="cls-25" d="M782.5,543.6v1.3c0,0-56.8,9.5-56.8,9.5,0-.4,0-.9-.1-1.3l56.9-9.5Z"/>
          <path class="cls-25" d="M731.4,609.6c0-.4,0-.9-.1-1.3l54.4.4v1.3c0,0-54.3-.4-54.3-.4Z"/>
          <path class="cls-25" d="M784.2,576.9v1.3c0,0-55.6,4.5-55.6,4.5,0-.4,0-.9-.1-1.3l55.7-4.5Z"/>
          <path class="cls-25" d="M771.2,310.5v1.5c0,0-60.9,43.9-60.9,43.9,0-.5,0-1,0-1.5l61-43.9Z"/>
          <path class="cls-25" d="M769.6,277.2v1.5c0,0-60.8,48.1-60.8,48.1,0-.5,0-1,0-1.5l60.9-48.1Z"/>
          <path class="cls-25" d="M776.1,411.2v1.4c0,0-60.1,29.7-60.1,29.7,0-.5,0-.9-.1-1.4l60.2-29.8Z"/>
          <path class="cls-25" d="M774.5,377.7v1.4c0,0-60.6,34.6-60.6,34.6,0-.5,0-.9,0-1.4l60.7-34.6Z"/>
          <path class="cls-25" d="M772.9,344.3v1.5c0,0-60.8,39.3-60.8,39.3,0-.5,0-1,0-1.4l60.9-39.4Z"/>
          <path class="cls-40" d="M767.4,232.8l-2.9-59.7c62.4,30.3,123.3,63.7,157.7,151.2.2,11,.4,22.5.4,34.3-45.9-69.3-98.1-108.8-155.2-125.8Z"/>
          <path class="cls-10" d="M767.4,232.8l-60.1,57.5c-.6-18.1-1.1-36-1.4-53.7l58.7-63.6,2.9,59.7Z"/>
          <path class="cls-4" d="M764.5,173.1l2.9,59.7c61.9,26.1,114.7,66.4,155.2,125.8l-.4-34.3c-19.9,15.1-84.8-60.1-157.7-151.2Z"/>
          <path class="cls-25" d="M707.2,290.4l60.2-57.6c57.1,17,109.4,56.5,155.3,126h-7.2c-9.1-17.9-88-104.9-147.4-111.9l-50.7,45.5-10.1-1.9Z"/>
          <path class="cls-4" d="M764.5,173.1c-2.2,44.4-23.2,82.8-57.3,117.3l60.2-57.6-2.9-59.7Z"/>
          <path class="cls-26" d="M754.8,145.7l1.3-1.7h0c0,0,.1,0,.1,0h1.8c2.8-2.8,6.2-4.4,9.7-5.5,3.5-1.1,7.2-1.6,10.8-1.8,7.3-.3,14.6.7,21.7,2.8,3.5,1,7,2.4,10.4,4.1,3.3,1.7,6.6,3.7,9.6,6.3,2.9,2.5,5.7,5.6,7.4,9.7.5,1,.7,2.1.9,3.2,0,1.1.3,2.3.1,3.4-.2,2-1,3.8-2,5.3l12.3,9.5c5.3.1,10.5,1,15.6,2.3,5.2,1.4,10.3,3.3,15.1,6.1,4.8,2.8,9.4,6.2,12.8,11.1,1.6,2.5,3,5.6,3,9,0,3.4-1.6,6.5-3.7,8.5-.9,1.7-2.1,3.1-3.4,4.3,4.3,5.8,8.3,11.7,12,18.1v.2c.1,0,.1.3.1.3l-.2,24.1c13.3,17.7,24.1,37.8,32.5,59.2v.2c0,0,0,.2,0,.2.1,5.7.2,11.4.3,17.1v16.8c.1,0,.2,1.3.2,1.3h-6.2c2.1,2.7,4.1,5.6,6,8.6l.2.2v.3l-.4,32.1c-.2,10.7-.4,21.4-.8,32-.6,21.4-1.5,42.7-2.4,64l-1.6,32c-.5,10.7-1.2,21.3-1.9,32-1.4,21.3-3,42.6-4.5,63.9,1.2-21.3,2.3-42.6,3.4-64l3.2-64c1-21.3,1.8-42.7,2.4-64,.3-10.7.5-21.3.7-32l.4-31.7c-2.2-3.4-4.4-6.7-6.9-9.7l-1.2-1.5h1.8s6.3,0,6.3,0v-16.4c-.2-5.6-.3-11.3-.4-16.9-8.4-21.3-19.2-41.3-32.4-58.9l-.2-.2v-.3l.2-24.2c-3.7-6.4-7.9-12.6-12.2-18.4l-.6-.7.7-.6c1.5-1.2,2.8-2.6,3.7-4.4h0c0-.1,0-.2,0-.2,1.9-1.9,3.2-4.5,3.2-7.3,0-2.8-1.1-5.6-2.7-7.9-3.2-4.6-7.7-8-12.3-10.6-4.7-2.7-9.7-4.6-14.7-5.9-5.1-1.4-10.3-2.2-15.5-2.3h-.2s-.2-.2-.2-.2l-13.1-10.1-.8-.6.6-.8c1.1-1.5,1.9-3.2,2.1-5.1.1-1,0-1.9,0-2.9-.2-.9-.4-1.9-.8-2.8-1.5-3.6-4.1-6.6-6.9-9-2.9-2.4-6-4.4-9.3-6.1-3.3-1.6-6.7-3.1-10.1-4.1-6.9-2.2-14.1-3.4-21.3-3.3-3.6,0-7.2.6-10.7,1.5-3.5,1-6.9,2.6-9.6,5.3h0c0,0-.1,0-.1,0h-1.8c0,0-1.6,1.8-1.6,1.8l-.3.4v-.5c0,0-3.8-23.4-3.8-23.4l4.1,22.8Z"/>
          <path class="cls-52" d="M732.7,623.2l-3.8-40.2c-1.2-13.4-2.3-26.8-3.6-40.2l-3.7-40.2c-1.2-13.4-2.3-26.8-3.4-40.3l-1.6-20.1-1.5-20.2c-.5-6.7-.9-13.4-1.3-20.2l-1.2-20.2c-1.5-26.9-3.3-53.8-4.3-80.7l-.3.7,9.7-8.7,1.4-1.2-1.7-.3-10.1-1.9.4,1.5h0s.3-.3.3-.3v-.4s-1.5-53.7-1.5-53.7l-.2.7,17.8-19.3.3-.3v-.4s-.7-15.1-.7-15.1c-.2-5-.4-10.1-.7-15.1l-.2.6,9.6-12.5.2-.2v-.2s-1.5-47.5-1.5-47.5l.4,47.5v-.4c.1,0-9.8,12.2-9.8,12.2l-.2.3v.4c.2,5.1.5,10.1.7,15.1l.7,15.1.2-.7-17.8,19.3-.2.3v.4s1.5,53.7,1.5,53.7l.3-.7h0s-1.2,1.2-1.2,1.2l1.6.3,10.1,1.9-.3-1.6-9.7,8.7-.3.3v.5c1,27,2.8,53.9,4.3,80.8l1.2,20.2c.4,6.7.8,13.5,1.3,20.2l1.5,20.2,1.6,20.1c1,13.4,2.2,26.9,3.4,40.3l3.7,40.2c1.1,13.4,2.7,26.8,4.2,40.2l4.7,40.1Z"/>
          <path class="cls-4" d="M770.2,179c25.5,10.8,49.7,25.8,71.6,44.5,0,18.9,4.7,37.8,13.6,53.6-24.3-22.2-52.9-38-82.9-46.3.1-17.5,0-34.6-2.2-51.9Z"/>
          <path class="cls-4" d="M733.8,214.1c-.4,14.4,0,28.2,2.3,42.3,7.7-9.5,16.5-16.9,26.7-22.4,1.4-16.3,1-32.8-1.2-49-10.1,8.1-20.4,17.8-27.9,29.1Z"/>
        </g>
      </g>
      <g class="cls-60">
        <g>
          <path class="cls-51" d="M270.6,313.4l354.7-124.3-40.3,444.2h-285.8l-28.6-319.9Z"/>
          <path class="cls-37" d="M313.6,433.3l-1.9-30.4-22.5,3.5,2.8,31.6,21.6-4.7Z"/>
          <path class="cls-37" d="M288.5,398.2l22.7-4.9-1.9-30.3-23.6,3.6,2.8,31.6Z"/>
          <path class="cls-37" d="M315.9,470.7l-1.7-27.9-21.5,3.3,2.6,29.1,20.7-4.5Z"/>
          <path class="cls-37" d="M299.2,520l2.4,27.8,18.9-2.2-1.8-28.6-19.6,3Z"/>
          <path class="cls-37" d="M308.7,353.4l-1.6-26.9-24.5,4.8,2.4,27.2,23.7-5.1Z"/>
          <path class="cls-37" d="M316.5,480.3l-20.5,3.1,2.5,28.2,19.7-4.2-1.7-27.1Z"/>
          <path class="cls-37" d="M307.1,537.4l208.2-33.3,17.7-483.5-241.3,142.7,15.5,374.1Z"/>
          <path class="cls-9" d="M316,526.4c62.4-11.3,125-20,187.9-26.2,2.7-151.3,9-303.2,20.1-453.9-5.1,4.1-11.8,7.5-16.9,11.6,1.5,78.1-3.8,154.7-12.7,232-6.1,52.8-14.3,108.1-41.4,148.9-16.1,24.1-37.8,41.5-60.7,53.9-23,12.4-51.9,25.9-76.1,33.7Z"/>
          <path class="cls-5" d="M309.4,172.3l5.1,330.7-17.3-336.4,213.5-126.7-201.3,132.4Z"/>
          <path class="cls-27" d="M328.2,66c10.2-30.4,62.3-49.6,132.2-49.6l.3,496.4c-47,1.4-88.5,6-115.8,18.5l-16.7-465.3Z"/>
          <path class="cls-39" d="M460.4,16.4l28.7,30.1-28.7,16.9V16.4Z"/>
          <path class="cls-5" d="M430.9,72.6c8,136.7,10.7,273.9,7.9,411-22.6,5-45.6,7.5-68.2,12.5,86.3-193.1,56.9-350.6,60.3-423.5Z"/>
          <path class="cls-5" d="M341.6,77.7c4.4,142.9,10.6,285.7,18.5,428.3-3-72.9-2.4-145.9,1-218.7,2.2-47.1,5.8-94.2,12.3-140.7,5.7-40.8,15.5-84.6,41.9-109.2-24.7,10.5-50.4,25.5-73.7,40.3Z"/>
          <path class="cls-9" d="M334.2,77.6c5.7,137.2,11.3,274.4,17,411.7-1.6-67.9-4.4-135.6-5-203.5-.4-53.8-.5-107.9,6.1-161.1,2.4-19.7,6.1-40.1,16.1-55.5,16.3-25.1,44.4-30.8,70-34.6-36-2.7-73,20.2-104.1,43.1Z"/>
          <path class="cls-9" d="M357.2,518.4c29.5-14.1,60.8-22.1,92.2-23.6-4.5-78.4-6.5-156.2-5.5-234.8-3.8,74.2-24.5,145-55.4,212.3-7.7,16.7-17.5,37.7-31.3,46.1Z"/>
          <path class="cls-48" d="M307.1,537.4l21.2,1.4,185.5-25.8,1.5-8.9-54.5,8.7c-44.3.5-83.8,5.7-115.8,18.5l-37.9,6.1Z"/>
          <path class="cls-35" d="M328.2,538.8l2.2,94.5h180.3l3.1-120.3-185.5,25.8Z"/>
          <path class="cls-9" d="M445.4,527.4c5.6,8.3,7.4,19.8,7.8,30.7.9,25.9-5.3,52.1-17.2,73.1,20.2-.2,59.9-1.3,59.9-1.3,3-38.7,3.8-75.4,0-108.2,0,0-33.8,3.9-50.5,5.7Z"/>
          <path class="cls-5" d="M335.3,543.2c.1,31,3,57.2,4.2,88.2-.3-94.9,118.3-102.7,148-108.7-49.9,6.2-102.7,15.5-152.2,20.6Z"/>
          <path class="cls-9" d="M396.1,630.7c36-1.7,72.1-2,108.2-1-.2-34.8.4-70.5,1.7-105.3-26.7,2.9-54.9,4.6-81.6,7.5,8.6,5.1,13.9,16.9,16,28.6s.5,24.1-3.7,34.8c-4.2,10.7-10.8,19.7-18.4,26.9-5.5,5.2-15.4,9.6-22.2,8.5Z"/>
          <path class="cls-9" d="M332.4,543.1c1.1,28.7,2.2,57.3,3.3,86,6.7.1,13.3.9,20.1,1-7-12.4-10.8-27.7-11.6-43-.7-15.3.8-30.5,2.3-45.7-4,1-10,2.1-14,1.7Z"/>
          <path class="cls-5" d="M370.3,628c42.7-1.7,85.4-3.4,128.1-5.1.7-32.2,1-64.3,1.7-96.5-1.5,14.6-3.7,29.6-7.8,43.3s-10.8,26.6-20.3,35.1c-10.1,9-22.7,12.4-35,15-21.5,4.5-45,7.5-66.7,8.3Z"/>
          <path class="cls-48" d="M515.2,504.1l33.5,6.8-.5,5.6-34.4-3.5,1.5-8.9Z"/>
          <path class="cls-28" d="M356.5,536.9v96.4h1.2l.4-96.8-1.5.4Z"/>
          <path class="cls-24" d="M354.9,536.9v96.4h1.8l.6-96.8-2.3.4Z"/>
          <path class="cls-28" d="M388.8,531.8v101.5h1.2l.4-102-1.5.4Z"/>
          <path class="cls-24" d="M387.2,531.8v101.5h1.8l.6-102-2.3.4Z"/>
          <path class="cls-28" d="M427.1,527.1v106.2h1.2l.4-106.6-1.5.4Z"/>
          <path class="cls-24" d="M425.5,527.1v106.2h1.8l.6-106.6-2.3.4Z"/>
          <path class="cls-28" d="M469.3,520.7v112.6h1.2l.4-113.1-1.5.5Z"/>
          <path class="cls-24" d="M467.7,520.7v112.6h1.8l.6-113.1-2.3.5Z"/>
          <path class="cls-50" d="M625.2,189.1l116.9,115.3-39.3,328.9h-117.9l40.3-444.2Z"/>
          <path class="cls-39" d="M532.9,20.6l184.7,173.6-6.4,79.6-85.9-84.8-60.4,21.2-16.1,300.6-33.5-6.8,17.7-483.5Z"/>
          <path class="cls-53" d="M513.7,513l34.5,3.5-5,116.9h-32.5l3.1-120.3Z"/>
          <path class="cls-9" d="M334.3,62.7c35.9-25.3,76.9-38.8,118-38.8-.2,159.3,1.8,319.6,1.6,478.9-29.3,0-59.3,5.2-87.9,13.2,17.2-6.3,31.2-28.1,40-47.8,25.2-56.2,35.4-121.5,37.1-186,1.3-47.2-2.1-95.9-18.8-138.2-16.7-42.3-52.8-77.4-90.1-81.3Z"/>
          <path class="cls-5" d="M452.1,23.2c-30.4.3-91.1,9-121,43.8,3.7,146.6,10.7,292.2,19.2,438.5-6.8-144.2-10.8-287.3-14.8-431.6,33.4-29.1,73-47.9,116.7-50.6Z"/>
          <path class="cls-44" d="M330.6,117.1l-1.3-1c20-39.7,73.2-47.2,129.6-55.2l1.4-.2.2,1.9-1.4.2c-56,7.9-108.8,15.4-128.4,54.3ZM460.5,104v-1.9c-53.7,6.3-109.1,12.8-129.8,51.8l1.3,1.1c20.3-38.2,75.3-44.7,128.5-50.9ZM460.5,145.5v-1.9c-60.7,5.7-108.6,12.8-128.4,48.2l1.2,1.1c19.5-34.6,67-41.7,127.2-47.3ZM460.5,187v-1.9c-57.4,4-106.6,10-127.1,44.5l1.2,1.2c20.1-33.8,68.9-39.8,125.9-43.8ZM460.6,228.5v-1.9c-54.2,2.4-104.5,7.3-125.7,40.9l1.2,1.2c20.8-33,70.8-37.8,124.5-40.2ZM460.6,270v-1.9c-50.9.9-102.4,4.6-124.4,37.3l1.2,1.3c21.6-32.1,72.7-35.7,123.2-36.6ZM460.6,311.5v-1.9c-2.1,0-4.2,0-6.3,0-55.8,0-97,6.2-116.7,33.7l1.1,1.3c20.1-28,63.3-33.4,121.9-33.1ZM460.6,353v-1.9c-49.9-1.7-99.2.8-121.6,30.1l1.1,1.3c22.1-28.8,71-31.2,120.5-29.5ZM460.6,394.5v-1.9c-46.3-2.8-96.9-1.9-120.3,26.5l1.1,1.4c23-27.9,73.1-28.7,119.2-25.9ZM460.6,436v-1.9c-63.2-5.6-99.9,1.4-118.9,22.8l1,1.4c18.7-21,55-27.9,117.9-22.4ZM460.7,477.5v-1.9c-60.7-7.1-98.1-1-117.5,19.2l1,1.5c19.1-19.9,56.2-25.9,116.6-18.8Z"/>
          <path class="cls-31" d="M330.6,115.4l-1.3-1c20-39.7,73.2-47.2,129.6-55.2l1.4-.2.2,1.9-1.4.2c-56,7.9-108.8,15.4-128.4,54.3ZM460.5,102.4v-1.9c-53.7,6.3-109.1,12.8-129.8,51.8l1.3,1.1c20.3-38.2,75.3-44.7,128.5-50.9ZM460.5,143.8v-1.9c-60.7,5.7-108.6,12.8-128.4,48.2l1.2,1.1c19.5-34.6,67-41.7,127.2-47.3ZM460.5,185.3v-1.9c-57.4,4-106.6,10-127.1,44.5l1.2,1.2c20.1-33.8,68.9-39.8,125.9-43.8ZM460.6,226.8v-1.9c-54.2,2.4-104.5,7.3-125.7,40.9l1.2,1.2c20.8-33,70.8-37.8,124.5-40.2ZM460.6,268.3v-1.9c-50.9.9-102.4,4.6-124.4,37.3l1.2,1.3c21.6-32.1,72.7-35.7,123.2-36.6ZM460.6,309.8v-1.9c-2.1,0-4.2,0-6.3,0-55.8,0-97,6.2-116.7,33.7l1.1,1.3c20.1-28.1,63.3-33.4,121.9-33.1ZM460.6,351.3v-1.9c-49.9-1.7-99.2.8-121.6,30.1l1.1,1.3c22.1-28.8,71-31.2,120.5-29.5ZM460.6,392.8v-1.9c-46.3-2.8-96.9-1.9-120.3,26.5l1.1,1.4c23-27.9,73.1-28.7,119.2-25.9ZM460.6,434.3v-1.9c-63.2-5.6-99.9,1.4-118.9,22.8l1,1.4c18.7-21,55-27.9,117.9-22.4ZM460.7,475.8v-1.9c-60.7-7.1-98.1-1-117.5,19.2l1,1.5c19.1-19.9,56.2-25.9,116.6-18.8Z"/>
          <path class="cls-9" d="M338.7,69.3c32-19,66.6-30.9,101.8-34.9,4.1,52.4,6.6,104,5.2,156.7-15.9-58.1-58.9-112.1-107-121.7Z"/>
          <path class="cls-16" d="M300,495.4h2.1c37.7-59,124.7-52.6,215.7-40l2.9-3.4c-85.4-19.3-186.5-21.1-220.7,43.3Z"/>
          <path class="cls-41" d="M300,495.4c28.2-51.7,116.6-64.2,220.7-43.3l5.5-78.5c-113.9-17.6-196.2,2.7-232.1,50l5.9,71.8Z"/>
          <path class="cls-54" d="M410,436.1c35.6.9,71.1,4.5,106.3,10.9,1.5-22.7,3.2-45.2,4.8-67.9-36.7-3.1-73.6-6.4-110.4-5.7,7,3.9,13.8,7.8,18.9,15,5.1,7.2,7.9,17.7,5.2,26.8-1.8,5.9-5.7,10.5-10,13.6-4.4,3.1-10,5.5-14.8,7.3Z"/>
          <path class="cls-54" d="M301.8,418.7c-1.7,18.3,2.4,36.7,10.4,52-3.4,4.4-7,9.3-10.4,13.7-1-19.8-3-39.5-5.8-59,2-2.7,3.8-4,5.8-6.8Z"/>
          <path class="cls-8" d="M456.1,371.4c20.5.4,40.9,2.2,61.2,5.6-2.7,23.4-5.2,46-7.8,69.5-40.9-7.7-82.5-9.3-123.7-4.6-15,1.7-30.4,4.4-43.8,13,21.1-12.4,43.1-20.2,66.3-23,23.2-2.7,46.5-2,69.8-1.1,5.7-10.1,5.6-24.9.4-35.4-5.2-10.6-13-19.9-22.3-24Z"/>
          <path class="cls-1" d="M302.1,422.9c.3,18.7,3.2,40,3.5,58.7-2.9-20.4-5.2-40.9-6.9-61.5,21.3-20.8,47.7-32.1,74.2-38.3,26.5-6.2,53.5-7,80.4-7.8-26.8,3.5-116.8,8.3-151.2,48.8Z"/>
          <path class="cls-7" d="M306.1,513.6l-.9-22.7s16.5-29.3,56.3-38.6c69.1-16.1,155.6,2.6,155.6,2.6l-1.7,45.2c-73.1-39.1-165-28.4-209.3,13.5Z"/>
          <path class="cls-24" d="M328.2,538.8l2.2,94.5h1.2l-1.2-92.6,181.6-24.2-3.1,116.9h3.1l4.4-120.9-188.2,26.3Z"/>
          <path class="cls-28" d="M516.4,512.4l31.8,4-5,116.9h-1.5l4.2-114-29.6-3.2v-3.7Z"/>
          <path class="cls-28" d="M516.3,516.1l-4.3,117.2h1.7l5-117-2.4-.3Z"/>
          <path class="cls-9" d="M335.2,541.5c1.1,29.8,2.3,59.7,3.4,89.5,3.3,0,6.7.5,10.1.5-9.2-28.2-9.3-59.5-8.7-89.9-1.3-.1-3.4,0-4.7,0Z"/>
          <path class="cls-6" d="M520.8,520.6c8.7,8.3,11.7,22.9,13.5,36.5,3.2,23.6,4.9,47.5,5.1,71.4-.2-35.2,1.2-70.8,3.1-106-6.5-.5-15.3-.5-21.7-1.9Z"/>
          <path class="cls-6" d="M519.4,527.2c-.9,34.3-1.8,68.6-2.7,103,7.6.9,15.6,1,23.3,1.8-3.2-20.3-7.2-41.9-10.4-62.3-2.2-14.3-5.9-29-10.2-42.5Z"/>
          <path class="cls-6" d="M521.3,529.4c.3,32.6,0,65.2-.7,97.8,4.6-.8,9.2-.8,13.8.5-5.6-32.5-10.5-65.3-13.1-98.4Z"/>
          <path class="cls-6" d="M521.4,523.3c6.2,1,12.4,1.6,18.6,1.7-1.7,25.2-2.9,50.4-3.8,75.7-1.6-17.4-3.5-35.3-6.6-52.4-1.5-8.4-3.6-18.5-8.1-25Z"/>
          <path class="cls-2" d="M519.6,520.2c-.2,35-.4,70-.6,105,2.2-36,9.5-71.2,20.1-104.8-6.1-.4-13.4.2-19.5-.2Z"/>
          <path class="cls-7" d="M328.2,538.8l188.2-26.3-3.5,97.4c-65.1-47.9-127.4-68.6-183.8-33.4l-.9-37.7Z"/>
          <path class="cls-9" d="M532.9,20.6l184.7,173.6c-105.1-65.2-163.4,33.3-168.9,316.6l-33.5-6.8,17.7-483.5Z"/>
          <path class="cls-29" d="M555.5,543.1l-2,65.6,26.2-.7,5.7-69.4-29.9,4.5Z"/>
          <path class="cls-42" d="M557.7,545.9l27.4-4.2-5.4,66.3-23.9.7,1.9-62.8Z"/>
          <path class="cls-56" d="M578.9,606.9c-8.9.2-13.3.4-22.1.6.7-24.2,1.1-36.4,1.8-60.6,10.2-1.5,15.3-2.3,25.5-3.9-2.1,25.5-3.1,38.3-5.2,63.9Z"/>
          <path class="cls-24" d="M553.6,542.1l28.6-4.6-.5,7.6-28,2.7v-5.7Z"/>
          <path class="cls-29" d="M553.6,547.8l28-2.7.5-7.6,3.2,1-.8,9.2-29.4,2.1-1.6-2.1Z"/>
          <path class="cls-29" d="M299.4,559.2l4.5,58.1,22.9-.6-1.7-61.4-25.7,4Z"/>
          <path class="cls-42" d="M301.6,561.7l23.7-3.7,1.6,58.7-20.9.6-4.3-55.6Z"/>
          <path class="cls-56" d="M326,615.7c-7.7.2-11.6.3-19.4.5-1.7-21.4-2.5-32.2-4.2-53.6,8.8-1.4,13.2-2,22-3.4.6,22.6.9,33.9,1.5,56.5Z"/>
          <path class="cls-24" d="M297.7,558.3l24.6-4,.3,6.7-24.3,2.3-.6-5Z"/>
          <path class="cls-29" d="M298.2,563.4l24.3-2.3-.3-6.7,2.9.9.2,8.2-25.6,1.8-1.6-1.8Z"/>
          <path class="cls-43" d="M664.4,633.3l6-89.6,30.2,8.7-8.6,80.9h-27.6Z"/>
          <path class="cls-29" d="M664.4,633.3l5.8-87.7,27.8,8.1-8.3,79.5h-25.2Z"/>
          <path class="cls-43" d="M673.1,552.7l-4.5,66.2,19.1,1.2,6.5-61.4-21.1-6Z"/>
          <path class="cls-29" d="M669.1,618.1l4.2-62.8,18.7,5.3-6.2,58.5-16.7-1Z"/>
          <path class="cls-37" d="M563.4,461.6l23.6-5.5,3.5-42.7-25.1,5.8-2,42.4Z"/>
          <path class="cls-37" d="M566.1,403.3l25.7-5.9,3.6-44.1-27.2,6.3-2.1,43.7Z"/>
          <path class="cls-37" d="M601.6,277.2l4.2-52.1-31.9,10.4-2.3,48.6,29.9-6.9Z"/>
          <path class="cls-37" d="M562.6,477.5l-2,42.8,21.6-5.2,3.5-42.9-23.1,5.3Z"/>
          <path class="cls-37" d="M568.9,343.7l27.8-6.4,3.6-44.1-29.3,6.8-2.1,43.7Z"/>
          <path class="cls-7" d="M637.3,268.9l-3.4,1.6-.6,7.8,1.5,1.2c-2.1,65-9.3,142.2-19,225.7l-1.5.3v4.6c13.1,1.1,25.3,5.3,37.3,10.7h1.5l.5-3.5h-.4c0-.1,23.1-202.6,23.1-202.6l2-.7,1.1-5.4-41.8-39.8Z"/>
          <path class="cls-15" d="M638.6,274.2l-19.5,230.9,37.3,12,23.7-207.7-41.5-35.1Z"/>
          <path class="cls-24" d="M636.9,276.4l3.2-1,.9-8.4-3.4,1.6-.6,7.8Z"/>
          <path class="cls-28" d="M640.9,267l41.8,39.8-1.1,5.4-1.9.7-42.8-36.4,3.2-1,.9-8.4Z"/>
          <path class="cls-24" d="M617.8,503.6l2.2-.4-.4,4.6-1.8.4v-4.6Z"/>
          <path class="cls-28" d="M620,503.2l37,12.2-.4,3.5h-1.5l-37.3-10.7,1.8-.4.4-4.6Z"/>
          <path class="cls-9" d="M633.6,333.7c20.1-13.7,35,12.7,34,85l12.5-109.5-41.5-35.1-5,59.6Z"/>
          <path class="cls-7" d="M689.6,314.5l-3,1.4-.6,6.9,1.3,1.1c-1.8,57.7-8.2,126.2-16.9,200.3l-1.3.2v4.1c11.6,1,22.5,4.7,33.1,9.5h1.3l.4-3.1h-.4c0-.1,20.5-179.8,20.5-179.8l1.7-.6,1-4.8-37.1-35.4Z"/>
          <path class="cls-15" d="M690.8,319.2l-17.3,204.9,33.1,10.6,21.1-184.4-36.8-31.1Z"/>
          <path class="cls-24" d="M689.2,321.2l2.8-.9.8-7.4-3,1.4-.6,6.9Z"/>
          <path class="cls-28" d="M692.8,312.8l37.1,35.3-1,4.8-1.7.6-38-32.3,2.8-.9.8-7.4Z"/>
          <path class="cls-24" d="M672.3,522.8l2-.4-.4,4.1-1.6.4v-4.1Z"/>
          <path class="cls-28" d="M674.3,522.5l32.8,10.9-.4,3.1h-1.3l-33.1-9.5,1.6-.4.4-4.1Z"/>
          <path class="cls-9" d="M686.3,372.1c17.8-12.2,31.1,11.3,30.2,75.4l11.1-97.2-36.8-31.1-4.5,52.9Z"/>
        </g>
      </g>
      <g class="cls-55">
        <g>
          <path class="cls-45" d="M879.9,270.3s0,0,.1,0c.5,0,.8-.6.8-1.1l-5.4-81.9c0-.6-.4-1-.9-.9-.5,0-.8.6-.8,1.1l5.5,81.9c0,.5.4.9.8.9Z"/>
          <path class="cls-45" d="M888.3,285.9s0,0,.1,0c.4,0,.8-.6.8-1.1l-5.4-81.9c0-.6-.5-1-.9-.9-.5,0-.8.6-.8,1.1l5.5,81.9c0,.5.4.9.8.9Z"/>
          <path class="cls-32" d="M900.8,594.1l-13.5-7.3-.7-19.6,13-1.7-13.3-6.5-.7-19.3,12.3-2.8-12.6-5.7-.7-19.1,9.2-2.7-9.5-5.8-.7-18.6,7.3-2.9-7.6-5.9-.7-18.7,8.2-3.6-8.5-5-.6-18.3,7.9-4.3-8.2-4.6-.6-17.8,7.6-5-7.9-4.1-.6-17.3,6.9-5.4-7.2-4.1-.6-16.6,6.5-5.8-6.8-4-.5-15.8,6.4-6.6-6.7-3.7-2.7-77.7c61.5,73.6,73,203.4,51.1,369.1h-38.3c0,0-.4-11.7-.4-11.7l13.2-1Z"/>
          <path class="cls-49" d="M875.1,237.7c109.9,46.3,151,222.5,120.3,375.5l-69.2-6.3c21.9-165.8,10.4-295.5-51.1-369.1Z"/>
          <path class="cls-4" d="M937.9,288.8c-.1,0-.3-.1-.4-.2-10.3-5.2-20.9-9.2-31.8-12.2,58.9,58.8,95,154.2,94.2,250,1.3-15.2,2.2-31.3,2.5-47.8-2.2-32.4-7.5-63.7-16-92.5-11.4-38.9-27.9-71.8-48.6-97.3ZM946.5,489.3c-1.6-57.9-6.5-115.8-16.9-172,23.3,40.4,29.1,92.6,32.7,142.7,3.6,50.1,6,102,23.9,146.6-9.6-.1-20.3,2.3-29-2.5-10.4-36.2-9.6-76-10.7-114.7Z"/>
          <path class="cls-4" d="M992.2,607.2c-20.4.7-40.7-1.3-60.7-5.9,20.7-108.9,10.4-227-27-327,10.7,1.6,21.7,5.5,31.1,11.8-9,18.7-6,43.5-3,64.8,6.9,48.7,13.7,97.5,20.6,146.2,2.8,19.7,5.6,39.6,11.5,58.1,5.9,18.5,14.1,41.4,27.5,52Z"/>
          <path class="cls-3" d="M898.3,266.1c27.3,46.1,40.4,103.9,44.5,161.7,4.2,57.8,0,116.2-4.1,174.3,0,1.2-.2,2.5-.4,3.7l40.9,3.8c-7.2-9.7-10.9-23.3-13.7-36.5-11-51.9-11.8-106.5-17.8-159.8-5.9-53.3-20.3-108.4-49.4-147.2ZM921.4,272.6c35.7,39.3,59,94.7,69.7,153.2,10.7,58.6,9.3,120.2.8,179.9,17.6-174.9-39.2-296.8-70.5-333.1Z"/>
          <path class="cls-45" d="M992.2,612.8l-3.2,16.9-65.7-2.9,2.7-20,66.2,6.1Z"/>
          <path class="cls-32" d="M926,606.8h-38c0,0,.5,18.5.5,18.5l34.8,1.6,2.7-20Z"/>
          <path class="cls-45" d="M938.9,287.1c-13.2-10.9-29.8-17.7-41.8-17h0c-6.5-11.8-13.8-22.6-22-32.4,24.8,10.5,46.1,27.5,63.8,49.4Z"/>
          <path class="cls-4" d="M918,358c9.6,65.7,10.8,132.6,3.8,198.7-2.4,22.3-5.8,44.9-15.3,65.2-5.9.6-11.7.5-17.6-.2,19.9-19.3,26.1-48.9,29.4-76.4,7.3-61.4,2-125.3-.3-187.2Z"/>
          <path class="cls-32" d="M877.1,294.9l-2-57.2c8.2,9.8,15.5,20.7,22,32.4l-20,24.8Z"/>
          <path class="cls-4" d="M895.5,602.4c-1.2-90.4-1.6-181.2-2.8-271.6-.4-28.1-1.3-58.3-14.8-80.4.5,16.4,13.2,252,17.6,352.1Z"/>
          <path class="cls-25" d="M935.1,512.2c0-.3,0-.6,0-.9,14.2,2.3,55.6,11,69.8,15.7,0,.3,0,.7,0,1-13.5-4.5-55.3-13.6-69.8-15.8Z"/>
          <path class="cls-25" d="M936,488.3c0-.3,0-.7,0-1,13.3,1.9,53.8,10.7,69,16.5,0,.4,0,.7,0,1.1-14.5-5.5-55.5-14.6-69-16.6Z"/>
          <path class="cls-25" d="M933.5,536.9c0-.3,0-.7,0-1,7.3,1.2,21,3.9,35.2,6.8,12.9,2.7,27.8,5.9,35.1,8,0,.3,0,.7,0,1-13-3.6-55.2-12.2-70.2-14.7Z"/>
          <path class="cls-25" d="M931.3,562c0-.3,0-.6,0-.9,15.5,2.8,56.5,10.3,70.1,13.5,0,.3,0,.7-.1,1-13.2-3-54.4-11-70-13.6Z"/>
          <path class="cls-25" d="M999.4,438.5c-16.7-7.8-51.5-17.2-64.6-18.1,0-.3,0-.7,0-1,12.4,1,47.1,9.8,64.4,17.9,0,.4.1.9.2,1.3Z"/>
          <path class="cls-25" d="M935.9,442.3c0-.3,0-.7,0-1,12.3,1.3,49.4,10.3,66.2,17.6,0,.4,0,.8.1,1.1-16.2-7.2-53.3-16.6-66.3-17.8Z"/>
          <path class="cls-25" d="M936.3,464.9v-1c12.6,1.6,51.7,10.7,67.8,17.2,0,.4,0,.7,0,1.1-15.4-6.4-54.6-15.8-67.8-17.3Z"/>
          <path class="cls-25" d="M928.5,587.8c0-.3,0-.7.1-1l69.3,12.2c0,.3-.1.7-.2,1l-69.3-12.2Z"/>
          <path class="cls-25" d="M962.9,324.5c.3.6.7,1.3,1.1,1.9-13.9-10.3-34.5-18.8-51.4-20.8-.1-.4-.3-.7-.4-1.1,16.4,1.9,36.6,10,50.7,19.9Z"/>
          <path class="cls-25" d="M954.9,310.7c.5.8,1,1.7,1.6,2.6-13.2-11.5-32.8-20.6-50.2-23.3-.2-.4-.3-.7-.5-1.1,16.8,2.5,35.7,11,49.1,21.8Z"/>
          <path class="cls-25" d="M970.9,340.6c.2.5.5,1.1.8,1.6-14.7-9.7-36.9-18.1-53.4-19.6-.1-.4-.2-.7-.3-1.1,16.2,1.4,38.1,9.6,53,19.1Z"/>
          <path class="cls-25" d="M990.5,395.9c.1.4.2.8.3,1.2-16.8-8.9-46.4-17.5-60.4-18.4,0-.3-.1-.7-.2-1,13.7.8,43,9.3,60.2,18.2Z"/>
          <path class="cls-25" d="M995.6,417.4c-16.9-8.4-49.2-17.4-62.6-18.3,0-.4,0-.7-.1-1,13.2.8,45.1,9.7,62.4,18.1,0,.4.2.8.2,1.2Z"/>
          <path class="cls-25" d="M984.8,376.4c.2.5.3,1,.5,1.5-16.2-9.1-43.1-17.8-58.1-18.7,0-.4-.1-.7-.2-1.1,15,.8,41.3,9.2,57.8,18.3Z"/>
          <path class="cls-25" d="M978.2,358c.2.5.4,1,.6,1.5-15.7-9.5-40.3-17.8-55.7-19,0-.4-.2-.7-.3-1.1,15.2,1.1,39.4,9.2,55.4,18.6Z"/>
          <path class="cls-58" d="M935.2,511.3c0-.3,0-.6,0-.9,14.2,2.3,55.6,11,69.8,15.7,0,.3,0,.7,0,1-13.5-4.5-55.3-13.6-69.8-15.8Z"/>
          <path class="cls-58" d="M936.2,487.4c0-.3,0-.7,0-1,13.3,1.9,53.8,10.7,69,16.5,0,.4,0,.7,0,1.1-14.5-5.5-55.5-14.6-69-16.6Z"/>
          <path class="cls-58" d="M933.7,536c0-.3,0-.7,0-1,7.3,1.2,21,3.9,35.2,6.8,12.9,2.7,27.8,5.9,35.1,8,0,.3,0,.7,0,1-13-3.6-55.2-12.2-70.2-14.7Z"/>
          <path class="cls-58" d="M931.5,561.1c0-.3,0-.6,0-.9,15.5,2.8,56.5,10.3,70.1,13.5,0,.3,0,.7-.1,1-13.2-3-54.4-11-70.1-13.6Z"/>
          <path class="cls-58" d="M999.6,437.5c-16.7-7.8-51.5-17.2-64.6-18.1,0-.3,0-.7,0-1,12.4,1,47.1,9.8,64.4,17.9,0,.4.1.9.2,1.3Z"/>
          <path class="cls-58" d="M936.1,441.3c0-.3,0-.7,0-1,12.3,1.3,49.4,10.3,66.2,17.6,0,.4,0,.8.1,1.1-16.2-7.2-53.3-16.6-66.3-17.8Z"/>
          <path class="cls-58" d="M936.5,464v-1c12.6,1.6,51.7,10.7,67.8,17.2,0,.4,0,.7,0,1.1-15.4-6.4-54.6-15.8-67.9-17.3Z"/>
          <path class="cls-58" d="M928.7,586.9c0-.3,0-.7.1-1l69.3,12.2c0,.3-.1.7-.2,1l-69.3-12.2Z"/>
          <path class="cls-58" d="M963.1,323.6c.3.6.7,1.3,1,1.9-13.9-10.3-34.5-18.8-51.3-20.8-.1-.4-.3-.7-.4-1.1,16.4,1.9,36.6,10,50.7,19.9Z"/>
          <path class="cls-58" d="M955,309.7c.5.8,1,1.7,1.6,2.6-13.2-11.5-32.8-20.6-50.2-23.3-.2-.4-.3-.7-.5-1.1,16.8,2.5,35.7,11,49.1,21.8Z"/>
          <path class="cls-58" d="M971.1,339.7c.2.5.5,1.1.8,1.6-14.7-9.7-36.9-18.1-53.4-19.6,0-.4-.2-.7-.3-1.1,16.2,1.4,38.1,9.6,53,19.1Z"/>
          <path class="cls-58" d="M990.7,395c.1.4.2.8.3,1.2-16.8-8.9-46.4-17.5-60.4-18.4,0-.3,0-.7-.2-1,13.7.8,43,9.3,60.2,18.2Z"/>
          <path class="cls-58" d="M995.7,416.5c-16.9-8.4-49.2-17.4-62.6-18.3,0-.3,0-.7-.1-1,13.2.8,45.1,9.7,62.4,18.1,0,.4.2.8.2,1.2Z"/>
          <path class="cls-58" d="M984.9,375.5c.2.5.3,1,.5,1.5-16.2-9.1-43.1-17.8-58.1-18.7,0-.4-.1-.7-.2-1.1,15,.8,41.4,9.2,57.8,18.3Z"/>
          <path class="cls-58" d="M978.4,357c.2.5.4,1,.6,1.5-15.7-9.5-40.3-17.8-55.7-19,0-.4-.2-.7-.3-1.1,15.2,1.1,39.4,9.2,55.4,18.6Z"/>
          <path class="cls-4" d="M878.2,243.5c58.5,91,64.1,224.1,41.2,379.7l-25.3-1.1c29.5-17.2,42.9-282.9-15.9-378.5Z"/>
          <path class="cls-36" d="M888.5,398.8l30.8-20.3c-.4-2.8-.8-5.7-1.3-8.5l-37.4,24.7,7.9,4.1ZM881.5,421.6l40.4-22.5c.3,2.8.6,5.7.9,8.5l-33.2,18.4-8.1-4.5ZM882.5,448.7l42.2-19.4c.2,2.8.4,5.7.5,8.6l-34.3,15.8-8.4-4.9ZM886.9,372l-7.2-4.1,33.1-25.6c.6,2.8,1.2,5.6,1.7,8.4l-27.6,21.4ZM885.5,345.5l-6.8-4,27.9-25c.7,2.7,1.4,5.5,2.1,8.2l-23.2,20.8ZM884.6,319.1l-6.7-3.7,21.9-22.6c.9,2.7,1.7,5.4,2.5,8.1l-17.7,18.3ZM886.3,558.9l37.4-5.3c-.2,2.8-.4,5.6-.7,8.5l-23.5,3.3-13.2-6.5ZM900.8,594.1l-13.5-7.3,33.7-2.5c-.3,2.8-.6,5.6-.9,8.4l-19.3,1.5h0ZM883.4,476l42.7-15.8c0,2.8.1,5.7.2,8.6l-35.3,13.1-7.5-5.8ZM897.9,536.8l-12.6-5.7,40.2-8.5c-.1,2.8-.3,5.7-.4,8.5l-27.2,5.7ZM884.4,503.5l42-12.1c0,2.8,0,5.7-.1,8.5l-32.4,9.4-9.5-5.8Z"/>
          <path class="cls-58" d="M875.1,237.7c8.9,11.5,17,24.1,23.8,37.7,6.9,13.6,12.7,28,17.4,42.9,9.5,30,14.8,61.9,17.5,94.1,2.7,32.2,2.9,64.9,1.2,97.3-1.6,32.5-4.9,64.9-9.1,97.1,2.3-16.1,4.3-32.2,6.1-48.4,1.6-16.2,2.9-32.4,3.8-48.7.9-16.3,1.3-32.6,1.2-48.8-.1-16.3-.7-32.5-2.1-48.7-2.8-32.3-8.2-64.3-17.9-94.3-4.8-15-10.7-29.4-17.7-43-7-13.5-15.2-26-24.3-37.3Z"/>
          <path class="cls-4" d="M916,271.8c-5.7-1.9-11.7-3-17.6-3.3-4.9-9.4-11.4-18.2-18-25.6,10.1,12.3,23,22.2,35.7,28.9Z"/>
          <path class="cls-4" d="M923.6,275.1c-7.3-3.9-15.1-6.2-23-6.8-5.8-7.8-11.6-15.7-17.3-23.5,13.1,9.9,27.3,20.4,40.3,30.4Z"/>
          <path class="cls-4" d="M964,615.1c-15.5-.7-29.6.5-39.6,3l1.5-11.3,66.2,6.1-1.1,5.5c-7.9-1.7-17.2-2.8-27.1-3.3Z"/>
          <path class="cls-10" d="M983.7,616l-5-.4-1.9,13.6,5,.2,1.9-13.5ZM966.4,614.7l5,.4-1.9,13.9-5-.2,1.9-14ZM960.3,614.2l5,.4-1.9,14.1-5-.2,1.9-14.2ZM972.5,615.1l5,.4-1.9,13.7-5-.2,1.9-13.8ZM932.8,627.3l-6.1-.3,1.8-15.2,6.1.5-1.8,15ZM984.8,616.1l4.4.3-2.2,13.3-4.1-.2,1.9-13.4ZM935.8,612.3l5,.4-1.9,14.8-5-.2,1.8-15ZM941.9,612.8l5,.4-1.9,14.6-5-.2,1.9-14.8ZM954.1,613.7l5,.4-1.9,14.2-5-.2,1.9-14.4ZM948,613.3l5,.4-1.9,14.4-5-.2,1.9-14.6Z"/>
          <path class="cls-4" d="M924.3,625.3c.9-5.6,1.8-11.2,2.7-16.8,21.3,2,42.7,3.9,64,5.9-.1.9,0,1.7-.2,2.7-9.6-1.5-19.5-1.2-29.2-.6-12.7.8-25.7,2.1-37.3,8.9Z"/>
          <path class="cls-4" d="M900,290.2c-2.3-5.8-5.3-11.2-8.8-15.8-1.1-1.4-2.6-2.9-4.2-2.2-1.4.6-1.9,2.7-2.3,4.5-1.8,9.9-3,19.9-3.4,30-1.5-20.6-2.8-40.5-3.2-61.2,7.9,14.5,16.2,28.6,21.9,44.6Z"/>
        </g>
      </g>
    </g>
  </g>
</svg>